<mxfile host="app.diagrams.net" modified="2024-02-13T20:09:22.881Z" agent="Mozilla/5.0 (X11; Linux x86_64) AppleWebKit/537.36 (KHTML, like Gecko) Chrome/120.0.0.0 Safari/537.36" version="23.1.4" etag="OH9Z71v2WU88MpdVRXh7" type="github">
  <diagram name="PÃ¡gina-1" id="8ZU4XrWPWuQQCW0cTmj1">
    <mxGraphModel>
      <root>
        <mxCell id="0" />
        <mxCell id="1" parent="0" />
      </root>
    </mxGraphModel>
  </diagram>
</mxfile>
